<svg xmlns="http://www.w3.org/2000/svg" viewBox="0 0 720 180" role="img" aria-labelledby="title desc">
  <title id="title">CreditCardPromos.ph CCP monogram logo</title>
  <desc id="desc">A compact CCP monogram made from card-like shapes beside the CreditCardPromos.ph wordmark.</desc>
  <rect width="720" height="180" rx="28" fill="#ffffff"/>
  <g transform="translate(37 35)">
    <rect x="0" y="0" width="146" height="110" rx="24" fill="#2457d6"/>
    <path d="M48 32H30c-9 0-16 7-16 16v14c0 9 7 16 16 16h18" fill="none" stroke="#ffffff" stroke-width="14" stroke-linecap="round"/>
    <path d="M88 32H70c-9 0-16 7-16 16v14c0 9 7 16 16 16h18" fill="none" stroke="#ffffff" stroke-width="14" stroke-linecap="round"/>
    <path d="M101 78V32h23c12 0 20 7 20 18s-8 18-20 18h-23" fill="none" stroke="#ffffff" stroke-width="14" stroke-linecap="round" stroke-linejoin="round"/>
    <circle cx="126" cy="94" r="8" fill="#f4b740"/>
  </g>
  <g fill="#1d2a43" font-family="Arial, Helvetica, sans-serif">
    <text x="220" y="91" font-size="43" font-weight="800" letter-spacing="0">CreditCardPromos</text>
    <text x="605" y="91" font-size="43" font-weight="700" fill="#2457d6">.ph</text>
    <text x="222" y="124" font-size="17" font-weight="700" fill="#65748d">A compact mark for a promo directory</text>
  </g>
</svg>
