<svg xmlns="http://www.w3.org/2000/svg" viewBox="0 0 32 32" role="img" aria-label="CreditCardPromos.ph">
  <rect width="32" height="32" rx="7" fill="#2457d6"/>
  <rect x="5" y="10" width="20" height="14" rx="3.5" fill="#ffffff" opacity=".96"/>
  <rect x="8" y="14" width="12" height="2" rx="1" fill="#2457d6"/>
  <rect x="8" y="20" width="6" height="2" rx="1" fill="#2457d6" opacity=".72"/>
  <path d="M18.8 4.5h8.2c1.2 0 2.2 1 2.2 2.2v8.2c0 .8-.3 1.4-.8 2l-8.3 8.3c-.9.9-2.4.9-3.3 0l-6-6c-.9-.9-.9-2.4 0-3.3l8.3-8.3c.5-.5 1.2-.8 1.9-.8Z" fill="#f4b740"/>
  <circle cx="24.2" cy="10" r="1.5" fill="#ffffff"/>
  <path d="M17.8 15.6h6.3" stroke="#1d2a43" stroke-width="1.9" stroke-linecap="round"/>
  <path d="M17.7 19.2h4" stroke="#1d2a43" stroke-width="1.9" stroke-linecap="round" opacity=".72"/>
</svg>
